TITLE ""
FILE "P1Q_t_1449-1458.mp3" MP3
  TRACK 01 AUDIO
    TITLE "P1Q_t_1449-1458_01"
    INDEX 01 00:00:00
  TRACK 02 AUDIO
    TITLE "P1Q_t_1449-1458_02"
    INDEX 01 00:01:04
  TRACK 03 AUDIO
    TITLE "P1Q_t_1449-1458_03"
    INDEX 01 00:01:25
  TRACK 04 AUDIO
    TITLE "P1Q_t_1449-1458_04"
    INDEX 01 00:03:63
  TRACK 05 AUDIO
    TITLE "P1Q_t_1449-1458_05"
    INDEX 01 00:04:06
  TRACK 06 AUDIO
    TITLE "P1Q_t_1449-1458_06"
    INDEX 01 00:07:75
  TRACK 07 AUDIO
    TITLE "P1Q_t_1449-1458_07"
    INDEX 01 00:08:45
  TRACK 08 AUDIO
    TITLE "P1Q_t_1449-1458_08"
    INDEX 01 00:09:68
  TRACK 09 AUDIO
    TITLE "P1Q_t_1449-1458_09"
    INDEX 01 00:10:13
  TRACK 10 AUDIO
    TITLE "P1Q_t_1449-1458_10"
    INDEX 01 00:11:16
  TRACK 11 AUDIO
    TITLE "P1Q_t_1449-1458_11"
    INDEX 01 00:11:36
  TRACK 12 AUDIO
    TITLE "P1Q_t_1449-1458_12"
    INDEX 01 00:16:62
  TRACK 13 AUDIO
    TITLE "P1Q_t_1449-1458_13"
    INDEX 01 00:17:32
  TRACK 14 AUDIO
    TITLE "P1Q_t_1449-1458_14"
    INDEX 01 00:18:42
  TRACK 15 AUDIO
    TITLE "P1Q_t_1449-1458_15"
    INDEX 01 00:18:63
  TRACK 16 AUDIO
    TITLE "P1Q_t_1449-1458_16"
    INDEX 01 00:21:03
  TRACK 17 AUDIO
    TITLE "P1Q_t_1449-1458_17"
    INDEX 01 00:21:20
  TRACK 18 AUDIO
    TITLE "P1Q_t_1449-1458_18"
    INDEX 01 00:25:67
  TRACK 19 AUDIO
    TITLE "P1Q_t_1449-1458_19"
    INDEX 01 00:26:35
  TRACK 20 AUDIO
    TITLE "P1Q_t_1449-1458_20"
    INDEX 01 00:27:42
  TRACK 21 AUDIO
    TITLE "P1Q_t_1449-1458_21"
    INDEX 01 00:27:64
  TRACK 22 AUDIO
    TITLE "P1Q_t_1449-1458_22"
    INDEX 01 00:30:68
  TRACK 23 AUDIO
    TITLE "P1Q_t_1449-1458_23"
    INDEX 01 00:31:13
  TRACK 24 AUDIO
    TITLE "P1Q_t_1449-1458_24"
    INDEX 01 00:35:71
  TRACK 25 AUDIO
    TITLE "P1Q_t_1449-1458_25"
    INDEX 01 00:36:43
  TRACK 26 AUDIO
    TITLE "P1Q_t_1449-1458_26"
    INDEX 01 00:37:68
  TRACK 27 AUDIO
    TITLE "P1Q_t_1449-1458_27"
    INDEX 01 00:38:15
  TRACK 28 AUDIO
    TITLE "P1Q_t_1449-1458_28"
    INDEX 01 00:41:54
  TRACK 29 AUDIO
    TITLE "P1Q_t_1449-1458_29"
    INDEX 01 00:41:74
  TRACK 30 AUDIO
    TITLE "P1Q_t_1449-1458_30"
    INDEX 01 00:46:14
  TRACK 31 AUDIO
    TITLE "P1Q_t_1449-1458_31"
    INDEX 01 00:46:57
  TRACK 32 AUDIO
    TITLE "P1Q_t_1449-1458_32"
    INDEX 01 00:48:05
  TRACK 33 AUDIO
    TITLE "P1Q_t_1449-1458_33"
    INDEX 01 00:48:27
  TRACK 34 AUDIO
    TITLE "P1Q_t_1449-1458_34"
    INDEX 01 00:52:35
  TRACK 35 AUDIO
    TITLE "P1Q_t_1449-1458_35"
    INDEX 01 00:52:52
  TRACK 36 AUDIO
    TITLE "P1Q_t_1449-1458_36"
    INDEX 01 00:56:64
  TRACK 37 AUDIO
    TITLE "P1Q_t_1449-1458_37"
    INDEX 01 00:57:34
  TRACK 38 AUDIO
    TITLE "P1Q_t_1449-1458_38"
    INDEX 01 00:58:49
  TRACK 39 AUDIO
    TITLE "P1Q_t_1449-1458_39"
    INDEX 01 00:58:70
  TRACK 40 AUDIO
    TITLE "P1Q_t_1449-1458_40"
    INDEX 01 01:02:45
  TRACK 41 AUDIO
    TITLE "P1Q_t_1449-1458_41"
    INDEX 01 01:02:64
  TRACK 42 AUDIO
    TITLE "P1Q_t_1449-1458_42"
    INDEX 01 01:08:10
  TRACK 43 AUDIO
    TITLE "P1Q_t_1449-1458_43"
    INDEX 01 01:08:57
  TRACK 44 AUDIO
    TITLE "P1Q_t_1449-1458_44"
    INDEX 01 01:10:25
  TRACK 45 AUDIO
    TITLE "P1Q_t_1449-1458_45"
    INDEX 01 01:10:46
  TRACK 46 AUDIO
    TITLE "P1Q_t_1449-1458_46"
    INDEX 01 01:11:75
  TRACK 47 AUDIO
    TITLE "P1Q_t_1449-1458_47"
    INDEX 01 01:12:20
  TRACK 48 AUDIO
    TITLE "P1Q_t_1449-1458_48"
    INDEX 01 01:18:38
  TRACK 49 AUDIO
    TITLE "P1Q_t_1449-1458_49"
    INDEX 01 01:19:12
  TRACK 50 AUDIO
    TITLE "P1Q_t_1449-1458_50"
    INDEX 01 01:20:35
  TRACK 51 AUDIO
    TITLE "P1Q_t_1449-1458_51"
    INDEX 01 01:20:58
  TRACK 52 AUDIO
    TITLE "P1Q_t_1449-1458_52"
    INDEX 01 01:24:70
  TRACK 53 AUDIO
    TITLE "P1Q_t_1449-1458_53"
    INDEX 01 01:25:14
  TRACK 54 AUDIO
    TITLE "P1Q_t_1449-1458_54"
    INDEX 01 01:30:59
  TRACK 55 AUDIO
    TITLE "P1Q_t_1449-1458_55"
    INDEX 01 01:31:27
  TRACK 56 AUDIO
    TITLE "P1Q_t_1449-1458_56"
    INDEX 01 01:32:36
  TRACK 57 AUDIO
    TITLE "P1Q_t_1449-1458_57"
    INDEX 01 01:32:58
  TRACK 58 AUDIO
    TITLE "P1Q_t_1449-1458_58"
    INDEX 01 01:36:02
  TRACK 59 AUDIO
    TITLE "P1Q_t_1449-1458_59"
    INDEX 01 01:36:22
  TRACK 60 AUDIO
    TITLE "P1Q_t_1449-1458_60"
    INDEX 01 01:40:22
